<?xml version="1.0" encoding="UTF-8"?>
<svg version="1.1" xmlns="http://www.w3.org/2000/svg" width="42" height="42">
<path d="M0 0 C0 0.66 0 1.32 0 2 C0.66 2 1.32 2 2 2 C4.49282029 6.98564059 6.07174773 11.3581582 5 17 C2.67920406 23.48632711 -0.25087018 28.16724679 -6 32 C-6.66 32 -7.32 32 -8 32 C-8 32.66 -8 33.32 -8 34 C-23.75417007 35.20450572 -23.75417007 35.20450572 -28.75 31 C-33.41577121 25.93253987 -36.72852461 19.5970489 -37.25 12.6875 C-36.83631954 6.58571322 -34.5791658 3.3141802 -30.1875 -0.75 C-19.96928874 -9.16609036 -10.1852672 -6.79017813 0 0 Z " fill="#9D5CE5" transform="translate(37,8)"/>
<path d="M0 0 C2.89726589 2.89726589 2.99003433 4.79404278 3.1875 8.875 C3.15581093 12.31009496 2.55421259 14.89157482 1 18 C0.67 18 0.34 18 0 18 C0 12.06 0 6.12 0 0 Z " fill="#674195" transform="translate(39,12)"/>
<path d="M0 0 C6.19887485 -0.37952295 10.4477112 0.1647887 16 3 C16 3.33 16 3.66 16 4 C12.25220959 4.20821058 10.2990429 3.64952145 7 2 C4.67504723 1.61250787 2.34148732 1.27017161 0 1 C0 0.67 0 0.34 0 0 Z " fill="#8859BB" transform="translate(17,2)"/>
<path d="M0 0 C0.66 0.33 1.32 0.66 2 1 C-0.19471406 5.51135667 -2.41173718 7.06273348 -7 9 C-5.44499019 5.18315774 -2.96404505 2.80804268 0 0 Z " fill="#794DAC" transform="translate(9,5)"/>
<path d="M0 0 C1.43931117 0.45261358 2.87638999 0.91232979 4.3125 1.375 C5.11300781 1.63023438 5.91351563 1.88546875 6.73828125 2.1484375 C9 3 9 3 12 5 C8.8125 5.3125 8.8125 5.3125 5 5 C2.0625 2.5 2.0625 2.5 0 0 Z " fill="#7B4FAD" transform="translate(8,37)"/>
</svg>
